<?xml version="1.0" encoding="utf-8"?>
<!-- Generator: Adobe Illustrator 26.2.1, SVG Export Plug-In . SVG Version: 6.00 Build 0)  -->
<svg version="1.1" id="Camada_1" xmlns="http://www.w3.org/2000/svg" xmlns:xlink="http://www.w3.org/1999/xlink" x="0px" y="0px"
	 viewBox="0 0 60 60" style="enable-background:new 0 0 60 60;" xml:space="preserve">
<style type="text/css">
	.st0{fill:#1B3967;}
</style>
<path class="st0" d="M5.3,55.1c-2.4,0-4.3-1.9-4.3-4.2c0-0.5,0.1-0.9,0.2-1.4c0-0.1,0-0.1,0.1-0.2C6,36.5,10.8,23.8,15.7,11
	c2-5.2,3.1-6,8.4-6c9-0.1,18-0.2,27,0.1c2.3,0,4.5,0.8,6.3,2.2c1.1,1,1.7,3.8,1.2,5.4c-2.5,7.5-5.3,15-8.4,22.3
	c-1.8,4-5.6,6.7-10,6.9C34,42.3,27.9,42.1,21.8,42l0,0c-1.7,0-3.1-1.3-3.1-3c0-0.2,0-0.5,0.1-0.7c1-5.6,3.4-7.2,9.5-7.2
	c4,0,7.9,0,12.3,0c1.9-4.9,3.6-9.4,5.8-15c-7.5,0-14.2,0.1-21.2,0L11.6,51.1c-0.9,2.4-3.2,4-5.8,4H5.3z"/>
</svg>
