<svg id="Camada_1" data-name="Camada 1" xmlns="http://www.w3.org/2000/svg" viewBox="0 0 281.05901 63"><path d="M193.91522,8a4.22482,4.22482,0,0,1,3.95393,5.71768c-.175.46271-.35188.931-.53467,1.42479q-7.00248,18.9153-14.25727,37.73676c-2.2953,5.94372-10.11018,5.64824-11.94209,3.57384-.73952,1.49039-5.59056,1.42767-8.12962,1.53249-5.31.2192-10.63757.14953-15.95431.03356-5.8848-.12837-8.09543-3.21566-6.155-8.816,2.282-6.5862,4.61825-13.17213,7.35667-19.57616,2.43781-5.701,7.10682-8.61781,13.38585-8.68359,6.97974-.07312,17.94472-.06123,22.40526-.1961,1.065-2.68695,2.22157-5.856,3.36406-8.73857A6.34739,6.34739,0,0,1,193.30817,8ZM173.12691,49.75122c2.07538-5.61111,4.15075-11.22222,6.45651-17.45621h-21.2121l-5.51379,14.762c5.509,0,10.132-.00889,14.75488.00411C169.62852,47.06674,171.7962,46.817,173.12691,49.75122Z" transform="translate(-8.90095 -8)" style="fill:#1b3967"/><path d="M13.22274,71a4.27535,4.27535,0,0,1-4.08332-5.63034q.027-.07647.05532-.1525,7.126-19.156,14.45183-38.23757c1.97722-5.17523,3.10528-5.99454,8.42192-6.0312,8.98508-.06195,17.97441-.15111,26.95389.08183a10.35989,10.35989,0,0,1,6.2628,2.21377c1.14073,1.02827,1.68929,3.83294,1.16488,5.39875-2.52508,7.53955-5.25894,15.03274-8.41022,22.33013a11.62839,11.62839,0,0,1-10.00259,6.94236c-6.06974.36424-12.17615.16585-18.26477.063l-.03586-.00079a3.08788,3.08788,0,0,1-3.06435-3.722c1.0324-5.64545,3.41182-7.18155,9.52467-7.20163,3.973-.013,7.94617-.00235,12.2817-.00235,1.87135-4.85577,3.6381-9.44011,5.77927-14.996-7.46725-.02713-14.18727.13431-21.22285.04469L19.53091,67.02047A6.22467,6.22467,0,0,1,13.72523,71Z" transform="translate(-8.90095 -8)" style="fill:#1b3967"/><path d="M250.18319,52.6817c2.45062-6.62627,4.9026-13.25617,7.5151-20.32007h-8.15468c-2.44618,6.3893-4.92545,12.89266-7.42578,19.38792-2.02476,5.25985-3.912,6.83267-8.94758,6.04293a3.34409,3.34409,0,0,1-2.75262-3.84546,9.84669,9.84669,0,0,1,.45964-1.85511c3.22278-8.74155,6.64833-17.40836,9.86941-26.15051,1.27117-3.45005,3.56506-5.019,7.17022-5.01041,11.66407.0278,23.32972-.09986,34.99173.05641,6.06124.08122,8.37225,3.59793,6.31818,9.3472C286.70766,37.38552,284.014,44.375,281.332,51.36655c-2.043,5.32565-3.35223,6.86174-7.99814,6.56031a4.0597,4.0597,0,0,1-3.68575-4.8791,8.95,8.95,0,0,1,.28717-1.05873c1.671-4.879,3.60066-9.669,5.4-14.5047.5673-1.52463,1.04394-3.083,1.73765-5.14868h-7.7146s-5.83772,13.79521-8.97493,21.22069c-.6476,1.53281-2.36138,4.22937-4.92185,4.41709-.54553.04-1.08244.07847-1.611.08154A3.97071,3.97071,0,0,1,250.18319,52.6817Z" transform="translate(-8.90095 -8)" style="fill:#1b3967"/><path d="M214.9868,34.34733a4.11034,4.11034,0,0,1,3.8038,5.49889c-1.34372,3.71124-2.62993,5.2445-6.45852,5.2445-3.16287,0-6.32736-.03107-9.48855.04922-1.03029.02617-3.43694.26665-3.00207,1.45315h19.92386l5.58862-14.60879H201.66923c.57253-5.59968,3.67143-11.057,7.12064-11.0078,7.32287.10448,14.65178-.15,21.97389-.00213,6.12824.12371,8.43138,3.45664,6.37128,9.20775-2.74709,7.669-5.78357,15.234-8.55269,22.89544-1.32972,3.67894-3.74652,5.08093-7.59769,5.02-9.32056-.14744-18.64558.01293-27.96776-.06905-6.219-.05469-8.40426-3.1193-6.52146-9.06736a61.43813,61.43813,0,0,1,2.90124-7.42465c1.815-3.888,5.09783-6.67267,9.15832-6.98129C203.979,34.143,209.44332,34.262,214.9868,34.34733Z" transform="translate(-8.90095 -8)" style="fill:#1b3967"/><path d="M113.94371,58.04875c-4.16338-.00392-8.329.08275-12.48961-.0254-5.45818-.14189-7.93978-3.02863-6.30113-8.0387a228.989,228.989,0,0,1,8.10932-21.454,12.51065,12.51065,0,0,1,11.57506-7.49823q12.47958-.36129,24.97648-.02369c6.15764.15731,8.29259,3.49854,6.20792,9.356q-3.345,9.39867-7.04979,18.668c-2.419,6.0246-6.91075,9.15253-13.53749,9.03255C121.6054,57.99594,117.77405,58.05268,113.94371,58.04875Zm20.13776-25.82689H112.867c-1.75053,4.69541-3.45372,9.2639-5.38835,14.45317H128.705Z" transform="translate(-8.90095 -8)" style="fill:#1b3967"/><path d="M86.43955,34.04946l0-1.72971H78.46626c-2.42117,6.26817-4.89641,12.5791-7.29716,18.91824-2.095,5.53173-3.41374,7.05028-8.31211,6.6432a3.76736,3.76736,0,0,1-3.49483-4.14913,5.82258,5.82258,0,0,1,.29132-1.2608c3.2335-8.89457,6.70868-17.701,9.98378-26.58086A6.86572,6.86572,0,0,1,76.819,20.92922c5.31972.04215,10.64323-.10409,15.95922.04316,6.08868.16865,8.23557,3.36383,6.3874,9.23808a27.73609,27.73609,0,0,1-1.75513,4.65266c-1.66654,3.1567-4.36867,4.42749-7.48855,3.69A4.60484,4.60484,0,0,1,86.43955,34.04946Z" transform="translate(-8.90095 -8)" style="fill:#1b3967"/></svg>