<?xml version="1.0" encoding="UTF-8"?><svg id="a" xmlns="http://www.w3.org/2000/svg" viewBox="0 0 60 60"><defs><style>.b{fill:#1b3967;}</style></defs><path class="b" d="M5.27,55.06c-2.36,.02-4.29-1.89-4.3-4.25,0-.47,.07-.94,.22-1.38,.02-.05,.04-.1,.06-.15C5.99,36.51,10.81,23.76,15.69,11.04c1.98-5.18,3.11-5.99,8.42-6.03,8.99-.06,17.97-.15,26.95,.08,2.27,.03,4.47,.81,6.26,2.21,1.14,1.03,1.69,3.83,1.16,5.4-2.53,7.54-5.26,15.03-8.41,22.33-1.76,4.01-5.63,6.7-10,6.94-6.07,.36-12.18,.17-18.26,.06h-.04c-1.71,.02-3.11-1.34-3.13-3.05,0-.23,.02-.45,.07-.68,1.03-5.65,3.41-7.18,9.52-7.2,3.97-.01,7.95,0,12.28,0,1.87-4.86,3.64-9.44,5.78-15-7.47-.03-14.19,.13-21.22,.04L11.57,51.08c-.93,2.4-3.23,3.98-5.81,3.98h-.5Z"/></svg>